<?xml version="1.0" encoding="UTF-8" standalone="no"?>
<!-- Created with Inkscape (http://www.inkscape.org/) -->

<svg
   xmlns:dc="http://purl.org/dc/elements/1.1/"
   xmlns:cc="http://creativecommons.org/ns#"
   xmlns:rdf="http://www.w3.org/1999/02/22-rdf-syntax-ns#"
   xmlns:svg="http://www.w3.org/2000/svg"
   xmlns="http://www.w3.org/2000/svg"
   xmlns:sodipodi="http://sodipodi.sourceforge.net/DTD/sodipodi-0.dtd"
   xmlns:inkscape="http://www.inkscape.org/namespaces/inkscape"
   width="420mm"
   height="140mm"
   viewBox="0 0 420 140"
   version="1.1"
   id="svg8"
   inkscape:version="0.92.2 2405546, 2018-03-11"
   sodipodi:docname="spacecore-web.svg"
   inkscape:export-filename="/home/renze/spacecore.png"
   inkscape:export-xdpi="60.476189"
   inkscape:export-ydpi="60.476189">
  <defs
     id="defs2" />
  <sodipodi:namedview
     id="base"
     pagecolor="#ffffff"
     bordercolor="#666666"
     borderopacity="1.0"
     inkscape:pageopacity="0.0"
     inkscape:pageshadow="2"
     inkscape:zoom="0.7"
     inkscape:cx="761.29503"
     inkscape:cy="320.09648"
     inkscape:document-units="mm"
     inkscape:current-layer="layer1"
     showgrid="false"
     inkscape:window-width="1920"
     inkscape:window-height="1009"
     inkscape:window-x="0"
     inkscape:window-y="42"
     inkscape:window-maximized="1"
     fit-margin-top="0"
     fit-margin-left="0"
     fit-margin-right="0"
     fit-margin-bottom="0" />
  <metadata
     id="metadata5">
    <rdf:RDF>
      <cc:Work
         rdf:about="">
        <dc:format>image/svg+xml</dc:format>
        <dc:type
           rdf:resource="http://purl.org/dc/dcmitype/StillImage" />
        <dc:title></dc:title>
      </cc:Work>
    </rdf:RDF>
  </metadata>
  <g
     inkscape:label="Layer 1"
     inkscape:groupmode="layer"
     id="layer1"
     transform="translate(0,-157)">
    <circle
       style="fill:#bd291b;fill-opacity:0.99215686;fill-rule:nonzero;stroke:none;stroke-width:0.26458332;stroke-opacity:1"
       id="path10"
       cx="74.856247"
       cy="227"
       r="64" />
    <circle
       style="fill:#f14129;fill-opacity:0.99215686;fill-rule:nonzero;stroke:none;stroke-width:0.26458332;stroke-opacity:1"
       id="path10-3-6-5-5"
       cx="74.856247"
       cy="227"
       r="56" />
    <circle
       style="fill:#df1b0f;fill-opacity:0.99215686;fill-rule:nonzero;stroke:none;stroke-width:0.26458332;stroke-opacity:1"
       id="path10-3-6-5-3"
       cx="74.856247"
       cy="227"
       r="48" />
    <circle
       style="fill:#ff4e18;fill-opacity:0.99215686;fill-rule:nonzero;stroke:none;stroke-width:0.26458332;stroke-opacity:1"
       id="path10-3-6-5"
       cx="74.856247"
       cy="227"
       r="40" />
    <circle
       style="fill:#f14129;fill-opacity:0.99215686;fill-rule:nonzero;stroke:none;stroke-width:0.26458332;stroke-opacity:1"
       id="path10-3-6"
       cx="74.856247"
       cy="227"
       r="32" />
    <circle
       style="fill:#ff4e18;fill-opacity:0.99215686;fill-rule:nonzero;stroke:none;stroke-width:0.26458332;stroke-opacity:1"
       id="path10-3-6-7"
       cx="74.856247"
       cy="227"
       r="24" />
    <circle
       style="fill:#da3e3f;fill-opacity:0.99215686;fill-rule:nonzero;stroke:none;stroke-width:0.26458332;stroke-opacity:1"
       id="path10-3"
       cx="74.856247"
       cy="227"
       r="16" />
    <path
       style="fill:#bd291b;fill-opacity:0.99215686;fill-rule:nonzero;stroke:none;stroke-width:0.26458332;stroke-opacity:1"
       d="m 120.45794,272.25466 a 63.999998,63.999998 0 0 0 -3.7e-4,-90.50962 l -90.509652,90.50962 a 63.999998,63.999998 0 0 0 90.510022,0 z"
       id="path10-6"
       inkscape:connector-curvature="0" />
    <circle
       style="fill:#ff4e18;fill-opacity:0.99215686;fill-rule:nonzero;stroke:none;stroke-width:0.42333329;stroke-opacity:1"
       id="path916"
       cx="112.69703"
       cy="211.8378"
       r="8" />
    <circle
       style="fill:#ff4e18;fill-opacity:0.99215686;fill-rule:nonzero;stroke:none;stroke-width:0.21166664;stroke-opacity:1"
       id="path916-2"
       cx="107.77589"
       cy="234.5238"
       r="4" />
    <circle
       style="fill:#ff4e18;fill-opacity:0.99215686;fill-rule:nonzero;stroke:none;stroke-width:0.21166664;stroke-opacity:1"
       id="path916-2-9"
       cx="126.13898"
       cy="226.74405"
       r="4" />
    <circle
       style="fill:#ff4e18;fill-opacity:0.99215686;fill-rule:nonzero;stroke:none;stroke-width:0.42333329;stroke-opacity:1"
       id="path916-27"
       cx="90.609215"
       cy="242.24106"
       r="8" />
    <path
       style="fill:#ff4e18;fill-opacity:0.99215686;fill-rule:nonzero;stroke:none;stroke-width:0.26458332;stroke-opacity:1"
       d="m 99.585199,267.53572 a 16,16 0 0 0 -15.999542,16.00006 16,16 0 0 0 1.457794,6.62544 63.999998,63.999998 0 0 0 29.347559,-12.66228 16,16 0 0 0 -14.805811,-9.96322 z"
       id="path10-6-9"
       inkscape:connector-curvature="0" />
    <circle
       style="fill:#ff4e18;fill-opacity:0.99215686;fill-rule:nonzero;stroke:none;stroke-width:0.42333329;stroke-opacity:1"
       id="path916-27-3"
       cx="52.811607"
       cy="270.96725"
       r="8" />
    <circle
       style="fill:#ff4e18;fill-opacity:0.99215686;fill-rule:nonzero;stroke:none;stroke-width:0.21166664;stroke-opacity:1"
       id="path916-2-6"
       cx="77.002083"
       cy="264.1637"
       r="4" />
    <g
       aria-label="Spacecore"
       transform="matrix(0.6550805,0,0,0.6550805,12.547098,336.38)"
       style="font-style:normal;font-variant:normal;font-weight:300;font-stretch:normal;font-size:24px;line-height:1.25;font-family:'Open Sans';-inkscape-font-specification:'Open Sans Light';letter-spacing:0px;word-spacing:0px;fill:#000000;fill-opacity:1;stroke:none"
       id="flowRoot1041">
      <path
         d="m 252.25,-162.03436 q 0,7.625 -5.625,12.08333 -5.58333,4.45834 -14.875,4.45834 -11.16667,0 -17.125,-2.45834 v -4.25 q 6.58333,2.79167 16.79167,2.79167 7.5,0 11.875,-3.41667 4.41666,-3.45833 4.41666,-9.04166 0,-3.45834 -1.45833,-5.70834 -1.45833,-2.29166 -4.75,-4.16666 -3.29167,-1.875 -9.66667,-4.04167 -9.33333,-3.20833 -12.91666,-6.91667 -3.54167,-3.75 -3.54167,-9.95833 0,-6.83333 5.33333,-11.125 5.375,-4.33333 13.79167,-4.33333 8.58333,0 16.125,3.25 l -1.54167,3.66666 q -7.58333,-3.16666 -14.5,-3.16666 -6.75,0 -10.75,3.125 -4,3.125 -4,8.5 0,3.375 1.20834,5.54166 1.25,2.16667 4.04166,3.91667 2.79167,1.70833 9.58334,4.125 7.125,2.45833 10.70833,4.79167 3.58333,2.29166 5.20833,5.25 1.66667,2.91666 1.66667,7.08333 z"
         style="font-size:85.33333588px;line-height:1.25"
         id="path1202" />
      <path
         d="m 283.45833,-145.49269 q -10.45833,0 -15.25,-7.83334 h -0.29166 l 0.125,3.5 q 0.16666,3.08334 0.16666,6.75 v 17.25001 h -4.125 v -65.79167 h 3.5 l 0.79167,6.45833 h 0.25 q 4.66667,-7.33333 14.91667,-7.33333 9.16666,0 13.95833,6.04166 4.83333,6 4.83333,17.5 0,11.16667 -5.08333,17.33334 -5.04167,6.125 -13.79167,6.125 z m -0.0833,-3.66667 q 6.95833,0 10.75,-5.16667 3.83333,-5.16666 3.83333,-14.45833 0,-19.95833 -14.41666,-19.95833 -7.91667,0 -11.625,4.375 -3.70834,4.33333 -3.70834,14.16666 v 1.33334 q 0,10.625 3.54167,15.16666 3.58333,4.54167 11.625,4.54167 z"
         style="font-size:85.33333588px;line-height:1.25"
         id="path1204" />
      <path
         d="m 342.41667,-146.32603 -1.04167,-7.16666 h -0.33333 q -3.41667,4.375 -7.04167,6.20833 -3.58333,1.79167 -8.5,1.79167 -6.66666,0 -10.375,-3.41667 -3.70833,-3.41667 -3.70833,-9.45833 0,-6.625 5.5,-10.29167 5.54167,-3.66667 16,-3.875 l 8.625,-0.25 v -3 q 0,-6.45833 -2.625,-9.75 -2.625,-3.29167 -8.45833,-3.29167 -6.29167,0 -13.04167,3.5 l -1.54167,-3.58333 q 7.45834,-3.5 14.75,-3.5 7.45834,0 11.125,3.875 3.70834,3.875 3.70834,12.08333 v 30.125 z M 325.75,-149.24269 q 7.25,0 11.41667,-4.125 4.20833,-4.16667 4.20833,-11.54167 v -4.45833 l -7.91666,0.33333 q -9.54167,0.45833 -13.625,3 -4.04167,2.5 -4.04167,7.83333 0,4.25 2.58333,6.625 2.625,2.33334 7.375,2.33334 z"
         style="font-size:85.33333588px;line-height:1.25"
         id="path1206" />
      <path
         d="m 378.16667,-145.49269 q -9.70834,0 -15.20834,-6.125 -5.5,-6.125 -5.5,-17.08334 0,-11.25 5.70834,-17.5 5.70833,-6.29166 15.625,-6.29166 5.875,0 11.25,2.04166 l -1.125,3.66667 q -5.875,-1.95833 -10.20834,-1.95833 -8.33333,0 -12.625,5.16666 -4.29166,5.125 -4.29166,14.79167 0,9.16667 4.29166,14.375 4.29167,5.16667 12,5.16667 6.16667,0 11.45834,-2.20834 v 3.83334 q -4.33334,2.125 -11.375,2.125 z"
         style="font-size:85.33333588px;line-height:1.25"
         id="path1208" />
      <path
         d="m 418.875,-145.49269 q -9.875,0 -15.41667,-6.08334 -5.5,-6.08333 -5.5,-17.04166 0,-10.83334 5.33334,-17.33334 5.33333,-6.54166 14.375,-6.54166 8,0 12.625,5.58333 4.625,5.58333 4.625,15.16667 v 3.33333 h -32.625 q 0.0833,9.33333 4.33333,14.25 4.29167,4.91667 12.25,4.91667 3.875,0 6.79167,-0.54167 2.95833,-0.54167 7.45833,-2.33333 v 3.75 q -3.83333,1.66666 -7.08333,2.25 -3.25,0.625 -7.16667,0.625 z m -1.20833,-43.33334 q -6.54167,0 -10.5,4.33334 -3.95834,4.29166 -4.625,12.41666 h 28 q 0,-7.875 -3.41667,-12.29166 -3.41667,-4.45834 -9.45833,-4.45834 z"
         style="font-size:85.33333588px;line-height:1.25"
         id="path1210" />
      <path
         d="m 465.50001,-145.49269 q -9.70833,0 -15.20833,-6.125 -5.5,-6.125 -5.5,-17.08334 0,-11.25 5.70833,-17.5 5.70833,-6.29166 15.625,-6.29166 5.875,0 11.25,2.04166 l -1.125,3.66667 q -5.875,-1.95833 -10.20833,-1.95833 -8.33334,0 -12.625,5.16666 -4.29167,5.125 -4.29167,14.79167 0,9.16667 4.29167,14.375 4.29166,5.16667 12,5.16667 6.16666,0 11.45833,-2.20834 v 3.83334 q -4.33333,2.125 -11.375,2.125 z"
         style="font-size:85.33333588px;line-height:1.25"
         id="path1212" />
      <path
         d="m 525.37501,-169.03436 q 0,11.08333 -5.375,17.33333 -5.375,6.20834 -14.83333,6.20834 -5.95834,0 -10.5,-2.875 -4.54167,-2.875 -6.95834,-8.25 -2.41666,-5.375 -2.41666,-12.41667 0,-11.08333 5.375,-17.25 5.375,-6.20833 14.75,-6.20833 9.33333,0 14.625,6.29166 5.33333,6.25 5.33333,17.16667 z m -35.75,0 q 0,9.33333 4.08333,14.58333 4.125,5.20834 11.625,5.20834 7.5,0 11.58334,-5.20834 4.125,-5.25 4.125,-14.58333 0,-9.375 -4.16667,-14.54167 -4.125,-5.16666 -11.625,-5.16666 -7.5,0 -11.58333,5.16666 -4.04167,5.125 -4.04167,14.54167 z"
         style="font-size:85.33333588px;line-height:1.25"
         id="path1214" />
      <path
         d="m 555.75001,-192.49269 q 2.875,0 6.16667,0.58333 l -0.79167,3.95833 q -2.83333,-0.70833 -5.875,-0.70833 -5.79167,0 -9.5,4.91667 -3.70833,4.91666 -3.70833,12.41666 v 25 h -4.125 v -45.29166 h 3.5 l 0.41666,8.16666 h 0.29167 q 2.79167,-5 5.95833,-7 3.16667,-2.04166 7.66667,-2.04166 z"
         style="font-size:85.33333588px;line-height:1.25"
         id="path1216" />
      <path
         d="m 589.375,-145.49269 q -9.875,0 -15.41667,-6.08334 -5.5,-6.08333 -5.5,-17.04166 0,-10.83334 5.33334,-17.33334 5.33333,-6.54166 14.375,-6.54166 8,0 12.625,5.58333 4.625,5.58333 4.625,15.16667 v 3.33333 h -32.625 q 0.0833,9.33333 4.33333,14.25 4.29167,4.91667 12.25,4.91667 3.875,0 6.79167,-0.54167 2.95833,-0.54167 7.45833,-2.33333 v 3.75 q -3.83333,1.66666 -7.08333,2.25 -3.25,0.625 -7.16667,0.625 z m -1.20833,-43.33334 q -6.54167,0 -10.5,4.33334 -3.95834,4.29166 -4.625,12.41666 h 28 q 0,-7.875 -3.41667,-12.29166 -3.41667,-4.45834 -9.45833,-4.45834 z"
         style="font-size:85.33333588px;line-height:1.25"
         id="path1218" />
    </g>
    <g
       aria-label="Bookkeeping for nerds"
       transform="matrix(0.28724029,0,0,0.28724029,132.16033,306.76678)"
       style="font-style:normal;font-variant:normal;font-weight:300;font-stretch:normal;font-size:24px;line-height:1.25;font-family:'Open Sans';-inkscape-font-specification:'Open Sans Light';letter-spacing:0px;word-spacing:0px;fill:#000000;fill-opacity:1;stroke:none"
       id="flowRoot1041-5">
      <path
         d="m 215.375,-207.24269 h 15.54167 q 9.5,0 13.83333,3.70833 4.33333,3.66667 4.33333,11.70833 0,5.29167 -2.29166,8.875 -2.29167,3.54167 -6.25,4.29167 v 0.41667 q 5.16666,1.29166 7.45833,4.83333 2.29167,3.54167 2.29167,9.41667 0,8.29166 -4.45834,13 -4.41666,4.66666 -12.125,4.66666 H 215.375 Z m 10.66667,24.5 H 231.25 q 3.58333,0 5.04167,-1.91667 1.45833,-1.91667 1.45833,-5.70833 0,-3.79167 -1.66667,-5.41667 -1.66666,-1.66667 -5.25,-1.66667 h -4.79166 z m 0,9.45833 v 17.04167 H 231.75 q 3.54167,0 5.25,-2.16667 1.75,-2.16667 1.75,-6.70833 0,-8.16667 -7.16667,-8.16667 z"
         style="font-style:normal;font-variant:normal;font-weight:bold;font-stretch:condensed;font-size:85.33333588px;line-height:1.25;font-family:'Open Sans Condensed';-inkscape-font-specification:'Open Sans Condensed,  Bold Condensed'"
         id="path1163" />
      <path
         d="m 292.41667,-169.61769 q 0,11.41666 -4.83333,17.79166 -4.83334,6.33334 -13.25,6.33334 -5.33334,0 -9.41667,-2.91667 -4.08333,-2.91667 -6.29167,-8.375 -2.20833,-5.5 -2.20833,-12.83333 0,-11.29167 4.79167,-17.625 4.79166,-6.375 13.29166,-6.375 8.20834,0 13.04167,6.5 4.875,6.45833 4.875,17.5 z m -24.66667,0 q 0,7.25 1.58334,10.95833 1.58333,3.70833 5.08333,3.70833 6.66667,0 6.66667,-14.66666 0,-7.29167 -1.625,-10.875 -1.58334,-3.625 -5.04167,-3.625 -3.5,0 -5.08333,3.625 -1.58334,3.58333 -1.58334,10.875 z"
         style="font-style:normal;font-variant:normal;font-weight:bold;font-stretch:condensed;font-size:85.33333588px;line-height:1.25;font-family:'Open Sans Condensed';-inkscape-font-specification:'Open Sans Condensed,  Bold Condensed'"
         id="path1165" />
      <path
         d="m 334.58333,-169.61769 q 0,11.41666 -4.83333,17.79166 -4.83333,6.33334 -13.25,6.33334 -5.33333,0 -9.41667,-2.91667 -4.08333,-2.91667 -6.29166,-8.375 -2.20834,-5.5 -2.20834,-12.83333 0,-11.29167 4.79167,-17.625 4.79167,-6.375 13.29167,-6.375 8.20833,0 13.04166,6.5 4.875,6.45833 4.875,17.5 z m -24.66666,0 q 0,7.25 1.58333,10.95833 1.58333,3.70833 5.08333,3.70833 6.66667,0 6.66667,-14.66666 0,-7.29167 -1.625,-10.875 -1.58333,-3.625 -5.04167,-3.625 -3.5,0 -5.08333,3.625 -1.58333,3.58333 -1.58333,10.875 z"
         style="font-style:normal;font-variant:normal;font-weight:bold;font-stretch:condensed;font-size:85.33333588px;line-height:1.25;font-family:'Open Sans Condensed';-inkscape-font-specification:'Open Sans Condensed,  Bold Condensed'"
         id="path1167" />
      <path
         d="m 353.29167,-171.32603 2.79167,-5.54166 9.16667,-15.875 h 11.75 l -11.75,19.04166 12.54166,27.375 h -11.625 l -8.375,-19.625 -4.33333,3.91667 v 15.70833 h -11.08333 v -64.83333 h 11.08333 v 30.54167 l -0.5,9.29166 z"
         style="font-style:normal;font-variant:normal;font-weight:bold;font-stretch:condensed;font-size:85.33333588px;line-height:1.25;font-family:'Open Sans Condensed';-inkscape-font-specification:'Open Sans Condensed,  Bold Condensed'"
         id="path1169" />
      <path
         d="m 393.45834,-171.32603 2.79167,-5.54166 9.16667,-15.875 h 11.75 l -11.75,19.04166 12.54166,27.375 h -11.625 l -8.375,-19.625 -4.33333,3.91667 v 15.70833 h -11.08333 v -64.83333 h 11.08333 v 30.54167 l -0.5,9.29166 z"
         style="font-style:normal;font-variant:normal;font-weight:bold;font-stretch:condensed;font-size:85.33333588px;line-height:1.25;font-family:'Open Sans Condensed';-inkscape-font-specification:'Open Sans Condensed,  Bold Condensed'"
         id="path1171" />
      <path
         d="m 439.83333,-145.49269 q -8.70833,0 -13.75,-6.16667 -5,-6.20833 -5,-17.54167 0,-11.5 4.54167,-17.95833 4.54167,-6.45833 12.66667,-6.45833 7.58333,0 11.95833,5.54166 4.375,5.5 4.375,15.45834 v 5.91666 h -22.29167 q 0.125,6.20834 2.54167,9.25 2.41667,3 6.66667,3 5.41666,0 11.08333,-3.375 v 9.125 q -5.33333,3.20834 -12.79167,3.20834 z m -1.625,-39.58334 q -2.375,0 -3.91666,2.54167 -1.54167,2.5 -1.79167,7.79167 h 11.25 q -0.0833,-5.08334 -1.54167,-7.70834 -1.45833,-2.625 -4,-2.625 z"
         style="font-style:normal;font-variant:normal;font-weight:bold;font-stretch:condensed;font-size:85.33333588px;line-height:1.25;font-family:'Open Sans Condensed';-inkscape-font-specification:'Open Sans Condensed,  Bold Condensed'"
         id="path1173" />
      <path
         d="m 479.16668,-145.49269 q -8.70834,0 -13.75,-6.16667 -5,-6.20833 -5,-17.54167 0,-11.5 4.54166,-17.95833 4.54167,-6.45833 12.66667,-6.45833 7.58333,0 11.95833,5.54166 4.375,5.5 4.375,15.45834 v 5.91666 h -22.29166 q 0.125,6.20834 2.54166,9.25 2.41667,3 6.66667,3 5.41667,0 11.08333,-3.375 v 9.125 q -5.33333,3.20834 -12.79166,3.20834 z m -1.625,-39.58334 q -2.375,0 -3.91667,2.54167 -1.54167,2.5 -1.79167,7.79167 h 11.25 q -0.0833,-5.08334 -1.54166,-7.70834 -1.45834,-2.625 -4,-2.625 z"
         style="font-style:normal;font-variant:normal;font-weight:bold;font-stretch:condensed;font-size:85.33333588px;line-height:1.25;font-family:'Open Sans Condensed';-inkscape-font-specification:'Open Sans Condensed,  Bold Condensed'"
         id="path1175" />
      <path
         d="m 522.08335,-145.49269 q -3,0 -5.33333,-1.33334 -2.29167,-1.375 -4.29167,-4.79166 h -0.58333 q 0.66667,5.66666 0.66667,6.83333 v 18.95834 h -11.16667 v -66.91667 h 8.58333 l 1.91667,6.04166 h 0.5 q 3.45833,-6.91666 10.04167,-6.91666 6.33333,0 9.91666,6.29166 3.58334,6.25 3.58334,17.70834 0,11.29166 -3.70834,17.70833 -3.70833,6.41667 -10.125,6.41667 z m -3.41666,-38.70834 q -3.25,0 -4.70834,3.04167 -1.41666,3 -1.5,10 v 1.45833 q 0,7.66667 1.45834,11.16667 1.45833,3.5 4.83333,3.5 5.83333,0 5.83333,-14.75 0,-7.25 -1.45833,-10.83333 -1.41667,-3.58334 -4.45833,-3.58334 z"
         style="font-style:normal;font-variant:normal;font-weight:bold;font-stretch:condensed;font-size:85.33333588px;line-height:1.25;font-family:'Open Sans Condensed';-inkscape-font-specification:'Open Sans Condensed,  Bold Condensed'"
         id="path1177" />
      <path
         d="m 554.875,-146.32603 h -11.08333 v -46.41666 H 554.875 Z m -11.54167,-58.54166 q 0,-2.75 1.58334,-4.33334 1.625,-1.625 4.5,-1.625 2.70833,0 4.33333,1.625 1.625,1.58334 1.625,4.33334 0,2.83333 -1.66667,4.41666 -1.66666,1.54167 -4.29166,1.54167 -2.75,0 -4.41667,-1.54167 -1.66667,-1.58333 -1.66667,-4.41666 z"
         style="font-style:normal;font-variant:normal;font-weight:bold;font-stretch:condensed;font-size:85.33333588px;line-height:1.25;font-family:'Open Sans Condensed';-inkscape-font-specification:'Open Sans Condensed,  Bold Condensed'"
         id="path1179" />
      <path
         d="m 587.50002,-146.32603 v -27.66666 q 0,-5.04167 -1.20833,-7.625 -1.20834,-2.58334 -3.91667,-2.58334 -3.58333,0 -5.25,3.58334 -1.66667,3.54166 -1.66667,12 v 22.29166 h -11.08333 v -46.41666 h 8.79167 l 1.33333,5.95833 h 0.70833 q 1.5,-3.20833 4.29167,-5 2.79167,-1.83333 6.54167,-1.83333 6.33333,0 9.45833,4.33333 3.16667,4.33333 3.16667,12.66667 v 30.29166 z"
         style="font-style:normal;font-variant:normal;font-weight:bold;font-stretch:condensed;font-size:85.33333588px;line-height:1.25;font-family:'Open Sans Condensed';-inkscape-font-specification:'Open Sans Condensed,  Bold Condensed'"
         id="path1181" />
      <path
         d="m 641.12503,-192.65936 v 6.5 l -5.54167,1.25 q 1.625,2.91667 1.625,7.33333 0,7.375 -4,11.54167 -4,4.16667 -11.16666,4.16667 -2.08334,0 -3.08334,-0.33334 -0.79166,0.70834 -1.5,1.58334 -0.70833,0.875 -0.70833,2.16666 0,2.91667 5.04167,2.91667 h 6.70833 q 5.91667,0 9.08333,3.20833 3.20834,3.16667 3.20834,9.58334 0,8.08333 -5.41667,12.5 -5.41667,4.41667 -15.58333,4.41667 -7.70834,0 -11.875,-3.375 -4.16667,-3.33334 -4.16667,-9.54167 0,-3.875 2.375,-6.83334 2.375,-2.91666 6.58333,-4.25 -2.125,-0.83333 -3.5,-2.58333 -1.33333,-1.75 -1.33333,-4.08333 0,-1.41667 0.41667,-2.54167 0.41666,-1.16667 1.16666,-2.16667 0.79167,-1.04166 3.16667,-3.04166 -2.875,-1.75 -4.54167,-5.375 -1.66666,-3.625 -1.66666,-8.04167 0,-7.625 4,-11.79167 4,-4.16666 11.45833,-4.16666 1.41667,0 3.25,0.33333 1.83333,0.29167 2.79167,0.625 z m -27.29167,53.08333 q 0,2.75 1.70834,4.20834 1.75,1.5 4.95833,1.5 5.04167,0 7.54167,-1.91667 2.54166,-1.91667 2.54166,-5.25 0,-2.625 -1.375,-3.70833 -1.33333,-1.08334 -5.04166,-1.08334 h -5.375 q -2.25,0 -3.625,1.66667 -1.33334,1.70833 -1.33334,4.58333 z m 3.41667,-38 q 0,8.20834 4.625,8.20834 4.5,0 4.5,-8.29167 0,-8.5 -4.5,-8.5 -4.625,0 -4.625,8.58333 z"
         style="font-style:normal;font-variant:normal;font-weight:bold;font-stretch:condensed;font-size:85.33333588px;line-height:1.25;font-family:'Open Sans Condensed';-inkscape-font-specification:'Open Sans Condensed,  Bold Condensed'"
         id="path1183" />
      <path
         d="m 688.50002,-183.95103 h -7.66667 v 37.625 h -11.08333 v -37.625 h -5.375 v -5.54166 l 5.375,-3.33334 v -3.5 q 0,-7.75 3.20833,-11.5 3.20834,-3.79166 10.33334,-3.79166 4.5,0 8.375,1.875 l -2.91667,8.45833 q -2.08333,-1 -4.25,-1 -1.91667,0 -2.79167,1.5 -0.875,1.5 -0.875,4.625 v 3.41667 h 7.66667 z"
         style="font-style:normal;font-variant:normal;font-weight:bold;font-stretch:condensed;font-size:85.33333588px;line-height:1.25;font-family:'Open Sans Condensed';-inkscape-font-specification:'Open Sans Condensed,  Bold Condensed'"
         id="path1185" />
      <path
         d="m 727.75002,-169.61769 q 0,11.41666 -4.83333,17.79166 -4.83334,6.33334 -13.25,6.33334 -5.33334,0 -9.41667,-2.91667 -4.08333,-2.91667 -6.29167,-8.375 -2.20833,-5.5 -2.20833,-12.83333 0,-11.29167 4.79167,-17.625 4.79166,-6.375 13.29166,-6.375 8.20834,0 13.04167,6.5 4.875,6.45833 4.875,17.5 z m -24.66667,0 q 0,7.25 1.58334,10.95833 1.58333,3.70833 5.08333,3.70833 6.66667,0 6.66667,-14.66666 0,-7.29167 -1.625,-10.875 -1.58334,-3.625 -5.04167,-3.625 -3.5,0 -5.08333,3.625 -1.58334,3.58333 -1.58334,10.875 z"
         style="font-style:normal;font-variant:normal;font-weight:bold;font-stretch:condensed;font-size:85.33333588px;line-height:1.25;font-family:'Open Sans Condensed';-inkscape-font-specification:'Open Sans Condensed,  Bold Condensed'"
         id="path1187" />
      <path
         d="m 755.33337,-193.61769 q 2.04167,0 4,0.625 l -1.29166,10.75 q -1.16667,-0.41667 -3.04167,-0.41667 -4.04167,0 -6.20833,3.20833 -2.16667,3.16667 -2.16667,9.25 v 23.875 h -11.08333 v -46.41666 h 9.125 l 1.25,7.25 h 0.375 q 1.83333,-4.375 4,-6.25 2.16666,-1.875 5.04166,-1.875 z"
         style="font-style:normal;font-variant:normal;font-weight:bold;font-stretch:condensed;font-size:85.33333588px;line-height:1.25;font-family:'Open Sans Condensed';-inkscape-font-specification:'Open Sans Condensed,  Bold Condensed'"
         id="path1189" />
      <path
         d="m 808.66671,-146.32603 v -27.66666 q 0,-5.04167 -1.20834,-7.625 -1.20833,-2.58334 -3.91666,-2.58334 -3.58334,0 -5.25,3.58334 -1.66667,3.54166 -1.66667,12 v 22.29166 h -11.08333 v -46.41666 h 8.79166 l 1.33334,5.95833 h 0.70833 q 1.5,-3.20833 4.29167,-5 2.79166,-1.83333 6.54166,-1.83333 6.33334,0 9.45834,4.33333 3.16667,4.33333 3.16667,12.66667 v 30.29166 z"
         style="font-style:normal;font-variant:normal;font-weight:bold;font-stretch:condensed;font-size:85.33333588px;line-height:1.25;font-family:'Open Sans Condensed';-inkscape-font-specification:'Open Sans Condensed,  Bold Condensed'"
         id="path1191" />
      <path
         d="m 846.00002,-145.49269 q -8.70833,0 -13.75,-6.16667 -5,-6.20833 -5,-17.54167 0,-11.5 4.54167,-17.95833 4.54166,-6.45833 12.66666,-6.45833 7.58334,0 11.95834,5.54166 4.375,5.5 4.375,15.45834 v 5.91666 h -22.29167 q 0.125,6.20834 2.54167,9.25 2.41666,3 6.66666,3 5.41667,0 11.08334,-3.375 v 9.125 q -5.33334,3.20834 -12.79167,3.20834 z m -1.625,-39.58334 q -2.375,0 -3.91667,2.54167 -1.54166,2.5 -1.79166,7.79167 h 11.25 q -0.0833,-5.08334 -1.54167,-7.70834 -1.45833,-2.625 -4,-2.625 z"
         style="font-style:normal;font-variant:normal;font-weight:bold;font-stretch:condensed;font-size:85.33333588px;line-height:1.25;font-family:'Open Sans Condensed';-inkscape-font-specification:'Open Sans Condensed,  Bold Condensed'"
         id="path1193" />
      <path
         d="m 888,-193.61769 q 2.04167,0 4,0.625 l -1.29167,10.75 q -1.16666,-0.41667 -3.04166,-0.41667 -4.04167,0 -6.20834,3.20833 -2.16666,3.16667 -2.16666,9.25 v 23.875 h -11.08334 v -46.41666 h 9.125 l 1.25,7.25 h 0.375 q 1.83334,-4.375 4,-6.25 2.16667,-1.875 5.04167,-1.875 z"
         style="font-style:normal;font-variant:normal;font-weight:bold;font-stretch:condensed;font-size:85.33333588px;line-height:1.25;font-family:'Open Sans Condensed';-inkscape-font-specification:'Open Sans Condensed,  Bold Condensed'"
         id="path1195" />
      <path
         d="m 909.25004,-145.49269 q -6.41667,0 -10.125,-6.33334 -3.70833,-6.33333 -3.70833,-17.625 0,-11.33333 3.625,-17.75 3.625,-6.41666 10,-6.41666 3.16666,0 5.45833,1.58333 2.33333,1.54167 4.29167,5.25 h 0.66666 q -0.5,-6.33333 -0.5,-8.875 v -15.5 h 11.08334 v 64.83333 h -8.25 l -1.875,-6.04166 h -0.375 q -3.54167,6.875 -10.29167,6.875 z m 3.58333,-9.375 q 3.08334,0 4.5,-2.79167 1.41667,-2.83333 1.54167,-10.25 v -1.45833 q 0,-8.08334 -1.45833,-11.375 -1.41667,-3.29167 -4.70834,-3.29167 -3.08333,0 -4.5,3.79167 -1.375,3.75 -1.375,10.95833 0,7.20833 1.41667,10.83333 1.41667,3.58334 4.58333,3.58334 z"
         style="font-style:normal;font-variant:normal;font-weight:bold;font-stretch:condensed;font-size:85.33333588px;line-height:1.25;font-family:'Open Sans Condensed';-inkscape-font-specification:'Open Sans Condensed,  Bold Condensed'"
         id="path1197" />
      <path
         d="m 964.29169,-159.90936 q 0,6.79167 -4,10.625 -3.95834,3.79167 -11.70834,3.79167 -6.875,0 -11.375,-2.70834 v -9.625 q 2.29167,1.58334 5.33334,2.625 3.08333,1.04167 5.41666,1.04167 2.58334,0 3.91667,-1.25 1.375,-1.29167 1.375,-3.375 0,-2.125 -1.41667,-3.70833 -1.41666,-1.58334 -5.20833,-3.875 -5.04167,-3 -7.25,-6.375 -2.16667,-3.41667 -2.16667,-8.04167 0,-5.91667 4.04167,-9.375 4.08333,-3.45833 11.16667,-3.45833 6.16666,0 11.625,3.25 l -3.625,7.95833 q -4.45834,-2.41667 -7.83334,-2.41667 -2.125,0 -3.20833,1.125 -1.04167,1.125 -1.04167,2.75 0,1.875 1.29167,3.33334 1.33333,1.45833 4.91667,3.625 4.33333,2.625 6.08333,4.45833 1.75,1.83333 2.70833,4.16667 0.95834,2.33333 0.95834,5.45833 z"
         style="font-style:normal;font-variant:normal;font-weight:bold;font-stretch:condensed;font-size:85.33333588px;line-height:1.25;font-family:'Open Sans Condensed';-inkscape-font-specification:'Open Sans Condensed,  Bold Condensed'"
         id="path1199" />
    </g>
  </g>
</svg>
