<?xml version="1.0" encoding="UTF-8" standalone="no"?>
<!-- Created with Inkscape (http://www.inkscape.org/) -->

<svg
   xmlns:dc="http://purl.org/dc/elements/1.1/"
   xmlns:cc="http://creativecommons.org/ns#"
   xmlns:rdf="http://www.w3.org/1999/02/22-rdf-syntax-ns#"
   xmlns:svg="http://www.w3.org/2000/svg"
   xmlns="http://www.w3.org/2000/svg"
   xmlns:sodipodi="http://sodipodi.sourceforge.net/DTD/sodipodi-0.dtd"
   xmlns:inkscape="http://www.inkscape.org/namespaces/inkscape"
   width="630mm"
   height="140mm"
   viewBox="0 0 630 140"
   version="1.1"
   id="svg8"
   inkscape:version="0.92.2 2405546, 2018-03-11"
   sodipodi:docname="spacecore-header.svg"
   inkscape:export-filename="/home/renze/spacecore.png"
   inkscape:export-xdpi="60.476189"
   inkscape:export-ydpi="60.476189">
  <defs
     id="defs2" />
  <sodipodi:namedview
     id="base"
     pagecolor="#ffffff"
     bordercolor="#666666"
     borderopacity="1.0"
     inkscape:pageopacity="0.0"
     inkscape:pageshadow="2"
     inkscape:zoom="0.49497475"
     inkscape:cx="1443.2858"
     inkscape:cy="44.643866"
     inkscape:document-units="mm"
     inkscape:current-layer="layer1"
     showgrid="false"
     inkscape:window-width="1920"
     inkscape:window-height="1009"
     inkscape:window-x="0"
     inkscape:window-y="42"
     inkscape:window-maximized="1"
     fit-margin-top="0"
     fit-margin-left="0"
     fit-margin-right="0"
     fit-margin-bottom="0" />
  <metadata
     id="metadata5">
    <rdf:RDF>
      <cc:Work
         rdf:about="">
        <dc:format>image/svg+xml</dc:format>
        <dc:type
           rdf:resource="http://purl.org/dc/dcmitype/StillImage" />
        <dc:title></dc:title>
      </cc:Work>
    </rdf:RDF>
  </metadata>
  <g
     inkscape:label="Layer 1"
     inkscape:groupmode="layer"
     id="layer1"
     transform="translate(0,-157)">
    <g
       id="g1031"
       transform="translate(-9.2604195)">
      <g
         transform="translate(-0.30418704,-1.9e-6)"
         id="g875">
        <circle
           style="fill:#bd291b;fill-opacity:0.99215686;fill-rule:nonzero;stroke:none;stroke-width:0.26458332;stroke-opacity:1"
           id="path10"
           cx="74.856247"
           cy="227"
           r="64" />
        <circle
           style="fill:#f14129;fill-opacity:0.99215686;fill-rule:nonzero;stroke:none;stroke-width:0.26458332;stroke-opacity:1"
           id="path10-3-6-5-5"
           cx="74.856247"
           cy="227"
           r="56" />
        <circle
           style="fill:#df1b0f;fill-opacity:0.99215686;fill-rule:nonzero;stroke:none;stroke-width:0.26458332;stroke-opacity:1"
           id="path10-3-6-5-3"
           cx="74.856247"
           cy="227"
           r="48" />
        <circle
           style="fill:#ff4e18;fill-opacity:0.99215686;fill-rule:nonzero;stroke:none;stroke-width:0.26458332;stroke-opacity:1"
           id="path10-3-6-5"
           cx="74.856247"
           cy="227"
           r="40" />
        <circle
           style="fill:#f14129;fill-opacity:0.99215686;fill-rule:nonzero;stroke:none;stroke-width:0.26458332;stroke-opacity:1"
           id="path10-3-6"
           cx="74.856247"
           cy="227"
           r="32" />
        <circle
           style="fill:#ff4e18;fill-opacity:0.99215686;fill-rule:nonzero;stroke:none;stroke-width:0.26458332;stroke-opacity:1"
           id="path10-3-6-7"
           cx="74.856247"
           cy="227"
           r="24" />
        <circle
           style="fill:#da3e3f;fill-opacity:0.99215686;fill-rule:nonzero;stroke:none;stroke-width:0.26458332;stroke-opacity:1"
           id="path10-3"
           cx="74.856247"
           cy="227"
           r="16" />
        <path
           style="fill:#bd291b;fill-opacity:0.99215686;fill-rule:nonzero;stroke:none;stroke-width:0.26458332;stroke-opacity:1"
           d="m 120.45794,272.25466 a 63.999998,63.999998 0 0 0 -3.7e-4,-90.50962 l -90.509652,90.50962 a 63.999998,63.999998 0 0 0 90.510022,0 z"
           id="path10-6"
           inkscape:connector-curvature="0" />
        <circle
           style="fill:#ff4e18;fill-opacity:0.99215686;fill-rule:nonzero;stroke:none;stroke-width:0.42333329;stroke-opacity:1"
           id="path916"
           cx="112.69703"
           cy="211.8378"
           r="8" />
        <circle
           style="fill:#ff4e18;fill-opacity:0.99215686;fill-rule:nonzero;stroke:none;stroke-width:0.21166664;stroke-opacity:1"
           id="path916-2"
           cx="107.77589"
           cy="234.5238"
           r="4" />
        <circle
           style="fill:#ff4e18;fill-opacity:0.99215686;fill-rule:nonzero;stroke:none;stroke-width:0.21166664;stroke-opacity:1"
           id="path916-2-9"
           cx="126.13898"
           cy="226.74405"
           r="4" />
        <circle
           style="fill:#ff4e18;fill-opacity:0.99215686;fill-rule:nonzero;stroke:none;stroke-width:0.42333329;stroke-opacity:1"
           id="path916-27"
           cx="90.609215"
           cy="242.24106"
           r="8" />
        <path
           style="fill:#ff4e18;fill-opacity:0.99215686;fill-rule:nonzero;stroke:none;stroke-width:0.26458332;stroke-opacity:1"
           d="m 99.585199,267.53572 a 16,16 0 0 0 -15.999542,16.00006 16,16 0 0 0 1.457794,6.62544 63.999998,63.999998 0 0 0 29.347559,-12.66228 16,16 0 0 0 -14.805811,-9.96322 z"
           id="path10-6-9"
           inkscape:connector-curvature="0" />
        <circle
           style="fill:#ff4e18;fill-opacity:0.99215686;fill-rule:nonzero;stroke:none;stroke-width:0.42333329;stroke-opacity:1"
           id="path916-27-3"
           cx="52.811607"
           cy="270.96725"
           r="8" />
        <circle
           style="fill:#ff4e18;fill-opacity:0.99215686;fill-rule:nonzero;stroke:none;stroke-width:0.21166664;stroke-opacity:1"
           id="path916-2-6"
           cx="77.002083"
           cy="264.1637"
           r="4" />
      </g>
      <g
         transform="translate(18.520839)"
         id="g1003">
        <path
           inkscape:connector-curvature="0"
           id="path1202"
           style="font-style:normal;font-variant:normal;font-weight:300;font-stretch:normal;font-size:85.33333588px;line-height:1.25;font-family:'Open Sans';-inkscape-font-specification:'Open Sans Light';letter-spacing:0px;word-spacing:0px;fill:#000000;fill-opacity:1;stroke:none;stroke-width:1.19400799"
           d="m 197.76411,244.63649 q 0,9.10431 -6.7163,14.42759 -6.66654,5.3233 -17.76087,5.3233 -13.33309,0 -20.44738,-2.93528 v -5.07454 q 7.86055,3.33328 20.04939,3.33328 8.95506,0 14.17884,-4.07953 5.27353,-4.12928 5.27353,-10.79582 0,-4.12928 -1.74126,-6.8158 -1.74126,-2.73626 -5.67154,-4.97503 -3.93028,-2.23876 -11.54208,-4.82578 -11.14407,-3.83077 -15.42259,-8.25856 -4.22879,-4.47753 -4.22879,-11.89033 0,-8.15905 6.36804,-13.28334 6.41779,-5.17403 16.46737,-5.17403 10.24856,0 19.25337,3.88053 l -1.84076,4.37802 q -9.05456,-3.78102 -17.31312,-3.78102 -8.05955,0 -12.83558,3.73128 -4.77604,3.73127 -4.77604,10.14907 0,4.02977 1.44277,6.61678 1.49251,2.58702 4.82578,4.67654 3.33327,2.03976 11.44258,4.92528 8.50731,2.93527 12.78583,5.72129 4.27853,2.73626 6.21879,6.26855 1.99002,3.48251 1.99002,8.45755 z" />
        <path
           inkscape:connector-curvature="0"
           id="path1204"
           style="font-style:normal;font-variant:normal;font-weight:300;font-stretch:normal;font-size:85.33333588px;line-height:1.25;font-family:'Open Sans';-inkscape-font-specification:'Open Sans Light';letter-spacing:0px;word-spacing:0px;fill:#000000;fill-opacity:1;stroke:none;stroke-width:1.19400799"
           d="m 235.0271,264.38738 q -12.48733,0 -18.20862,-9.35308 h -0.34824 l 0.14925,4.17904 q 0.19899,3.68152 0.19899,8.05955 v 20.59666 h -4.92528 v -78.55579 h 4.17903 l 0.94526,7.71129 h 0.2985 q 5.57204,-8.75605 17.81062,-8.75605 10.94507,0 16.66636,7.21379 5.77103,7.16405 5.77103,20.89514 0,13.33309 -6.06953,20.69615 -6.0198,7.3133 -16.46737,7.3133 z m -0.0995,-4.37804 q 8.3083,0 12.83559,-6.16904 4.57703,-6.16904 4.57703,-17.26337 0,-23.8304 -17.21361,-23.8304 -9.45257,0 -13.88034,5.22378 -4.42779,5.17403 -4.42779,16.91511 v 1.59202 q 0,12.68633 4.22878,18.10911 4.27852,5.42279 13.88034,5.42279 z" />
        <path
           inkscape:connector-curvature="0"
           id="path1206"
           style="font-style:normal;font-variant:normal;font-weight:300;font-stretch:normal;font-size:85.33333588px;line-height:1.25;font-family:'Open Sans';-inkscape-font-specification:'Open Sans Light';letter-spacing:0px;word-spacing:0px;fill:#000000;fill-opacity:1;stroke:none;stroke-width:1.19400799"
           d="m 305.42383,263.39237 -1.24376,-8.55706 h -0.398 q -4.07953,5.2238 -8.40781,7.4128 -4.27852,2.13927 -10.14907,2.13927 -7.96004,0 -12.38783,-4.07954 -4.42777,-4.07953 -4.42777,-11.29332 0,-7.9103 6.56704,-12.28834 6.6168,-4.37803 19.10413,-4.62678 l 10.29832,-0.2985 v -3.58202 q 0,-7.7113 -3.13427,-11.64158 -3.13428,-3.93028 -10.09932,-3.93028 -7.5123,0 -15.57186,4.17903 l -1.84076,-4.27853 q 8.90531,-4.17903 17.61161,-4.17903 8.90532,0 13.28334,4.62679 4.42779,4.62678 4.42779,14.42759 v 35.9695 z m -19.90013,-3.48252 q 8.65655,0 13.63159,-4.92528 5.02478,-4.97504 5.02478,-13.78085 v -5.32328 l -9.45255,0.398 q -11.39283,0.54725 -16.26836,3.58203 -4.82579,2.98502 -4.82579,9.35305 0,5.07454 3.08452,7.9103 3.13427,2.78603 8.80581,2.78603 z" />
        <path
           inkscape:connector-curvature="0"
           id="path1208"
           style="font-style:normal;font-variant:normal;font-weight:300;font-stretch:normal;font-size:85.33333588px;line-height:1.25;font-family:'Open Sans';-inkscape-font-specification:'Open Sans Light';letter-spacing:0px;word-spacing:0px;fill:#000000;fill-opacity:1;stroke:none;stroke-width:1.19400799"
           d="m 348.10962,264.38738 q -11.59184,0 -18.15888,-7.3133 -6.56704,-7.3133 -6.56704,-20.39765 0,-13.43259 6.8158,-20.89514 6.81579,-7.51229 18.65637,-7.51229 7.0148,0 13.43259,2.43776 l -1.34325,4.37803 q -7.0148,-2.33826 -12.18884,-2.33826 -9.95007,0 -15.07436,6.16903 -5.12427,6.11929 -5.12427,17.66137 0,10.94508 5.12427,17.16387 5.12429,6.16905 14.3281,6.16905 7.36305,0 13.68135,-2.63678 v 4.57704 q -5.17404,2.53727 -13.58184,2.53727 z" />
        <path
           inkscape:connector-curvature="0"
           id="path1210"
           style="font-style:normal;font-variant:normal;font-weight:300;font-stretch:normal;font-size:85.33333588px;line-height:1.25;font-family:'Open Sans';-inkscape-font-specification:'Open Sans Light';letter-spacing:0px;word-spacing:0px;fill:#000000;fill-opacity:1;stroke:none;stroke-width:1.19400799"
           d="m 396.71569,264.38738 q -11.79083,0 -18.40763,-7.26356 -6.56704,-7.26355 -6.56704,-20.34788 0,-12.9351 6.36805,-20.69615 6.36804,-7.81079 17.16387,-7.81079 9.55206,0 15.07435,6.66654 5.52228,6.66654 5.52228,18.10912 v 3.98003 h -38.95451 q 0.0995,11.14407 5.17403,17.01461 5.12429,5.87055 14.6266,5.87055 4.62678,0 8.10931,-0.64675 3.53227,-0.64677 8.90531,-2.78602 v 4.47753 q -4.57703,1.99 -8.45756,2.68651 -3.88052,0.74625 -8.55706,0.74626 z m -1.44275,-51.74036 q -7.81081,0 -12.53709,5.17404 -4.72629,5.12428 -5.52229,14.82559 h 33.43223 q 0,-9.40281 -4.07953,-14.67634 -4.07953,-5.32329 -11.29332,-5.32329 z" />
        <path
           inkscape:connector-curvature="0"
           id="path1212"
           style="font-style:normal;font-variant:normal;font-weight:300;font-stretch:normal;font-size:85.33333588px;line-height:1.25;font-family:'Open Sans';-inkscape-font-specification:'Open Sans Light';letter-spacing:0px;word-spacing:0px;fill:#000000;fill-opacity:1;stroke:none;stroke-width:1.19400799"
           d="m 452.38633,264.38738 q -11.59183,0 -18.15887,-7.3133 -6.56705,-7.3133 -6.56705,-20.39765 0,-13.43259 6.8158,-20.89514 6.81579,-7.51229 18.65637,-7.51229 7.0148,0 13.43259,2.43776 l -1.34326,4.37803 q -7.0148,-2.33826 -12.18883,-2.33826 -9.95007,0 -15.07435,6.16903 -5.12429,6.11929 -5.12429,17.66137 0,10.94508 5.12429,17.16387 5.12428,6.16905 14.3281,6.16905 7.36304,0 13.68134,-2.63678 v 4.57704 q -5.17403,2.53727 -13.58184,2.53727 z" />
        <path
           inkscape:connector-curvature="0"
           id="path1214"
           style="font-style:normal;font-variant:normal;font-weight:300;font-stretch:normal;font-size:85.33333588px;line-height:1.25;font-family:'Open Sans';-inkscape-font-specification:'Open Sans Light';letter-spacing:0px;word-spacing:0px;fill:#000000;fill-opacity:1;stroke:none;stroke-width:1.19400799"
           d="m 523.87755,236.27843 q 0,13.23359 -6.41779,20.69614 -6.41779,7.41281 -17.71111,7.41281 -7.11431,0 -12.53709,-3.43277 -5.42279,-3.43278 -8.30831,-9.85057 -2.88551,-6.4178 -2.88551,-14.82561 0,-13.23358 6.41779,-20.59664 6.41779,-7.41279 17.61162,-7.41279 11.14407,0 17.46237,7.51229 6.36803,7.46255 6.36803,20.49714 z m -42.68578,0 q 0,11.14407 4.87553,17.41261 4.92528,6.21881 13.88034,6.21881 8.95506,0 13.8306,-6.21881 4.92528,-6.26854 4.92528,-17.41261 0,-11.19381 -4.97503,-17.36287 -4.92529,-6.16903 -13.88035,-6.16903 -8.95506,0 -13.83058,6.16903 -4.82579,6.11929 -4.82579,17.36287 z" />
        <path
           inkscape:connector-curvature="0"
           id="path1216"
           style="font-style:normal;font-variant:normal;font-weight:300;font-stretch:normal;font-size:85.33333588px;line-height:1.25;font-family:'Open Sans';-inkscape-font-specification:'Open Sans Light';letter-spacing:0px;word-spacing:0px;fill:#000000;fill-opacity:1;stroke:none;stroke-width:1.19400799"
           d="m 560.14555,208.269 q 3.43277,0 7.36305,0.6965 l -0.94526,4.72628 q -3.38302,-0.84576 -7.0148,-0.84576 -6.9153,0 -11.34307,5.87055 -4.42778,5.87053 -4.42778,14.82559 v 29.85021 h -4.92528 v -54.0786 h 4.17903 l 0.49749,9.75104 h 0.34826 q 3.33328,-5.97004 7.11429,-8.35804 3.78103,-2.43776 9.15407,-2.43777 z" />
        <path
           inkscape:connector-curvature="0"
           id="path1218"
           style="font-style:normal;font-variant:normal;font-weight:300;font-stretch:normal;font-size:85.33333588px;line-height:1.25;font-family:'Open Sans';-inkscape-font-specification:'Open Sans Light';letter-spacing:0px;word-spacing:0px;fill:#000000;fill-opacity:1;stroke:none;stroke-width:1.19400799"
           d="m 600.29405,264.38738 q -11.79082,0 -18.40762,-7.26356 -6.56705,-7.26355 -6.56705,-20.34788 0,-12.9351 6.36805,-20.69615 6.36804,-7.81079 17.16387,-7.81079 9.55206,0 15.07435,6.66654 5.52229,6.66654 5.52229,18.10912 v 3.98003 h -38.95451 q 0.0995,11.14407 5.17403,17.01461 5.12429,5.87055 14.6266,5.87055 4.62678,0 8.1093,-0.64675 3.53227,-0.64677 8.90531,-2.78602 v 4.47753 q -4.57703,1.99 -8.45755,2.68651 -3.88053,0.74625 -8.55707,0.74626 z m -1.44275,-51.74036 q -7.81081,0 -12.53708,5.17404 -4.72629,5.12428 -5.52229,14.82559 h 33.43222 q 0,-9.40281 -4.07953,-14.67634 -4.07953,-5.32329 -11.29332,-5.32329 z" />
      </g>
    </g>
  </g>
</svg>
